PathFileType	4	(X/Y/Z)	 s01c0201.trc
DataRate	CameraRate	NumFrames	NumMarkers	Units	OrigDataRate	OrigDataStartFrame	OrigNumFrames
200	200	4	48	mm	200	501	2000
Frame#	Time	racr			lacr			c7			jug			rlel			rdr			llel			ldr			s2			lic			ric			lasi			rasi			rpsi			lpsi			rgt			lgt			rth1			rth2			rth3			rth4			rlfc			rsh1			rsh2			rsh3			rsh4			rlmal			rmmal			rcal			rtoe			rmt5			lth1			lth2			lth4			lth3			llfc			lsh1			lsh2			lsh3			lsh4			llmal			lmmal			lcal			ltoe			lmt5			SBIKE			LBIKE			RBIKE			
		X1	Y1	Z1	X2	Y2	Z2	X3	Y3	Z3	X4	Y4	Z4	X5	Y5	Z5	X6	Y6	Z6	X7	Y7	Z7	X8	Y8	Z8	X9	Y9	Z9	X10	Y10	Z10	X11	Y11	Z11	X12	Y12	Z12	X13	Y13	Z13	X14	Y14	Z14	X15	Y15	Z15	X16	Y16	Z16	X17	Y17	Z17	X18	Y18	Z18	X19	Y19	Z19	X20	Y20	Z20	X21	Y21	Z21	X22	Y22	Z22	X23	Y23	Z23	X24	Y24	Z24	X25	Y25	Z25	X26	Y26	Z26	X27	Y27	Z27	X28	Y28	Z28	X29	Y29	Z29	X30	Y30	Z30	X31	Y31	Z31	X32	Y32	Z32	X33	Y33	Z33	X34	Y34	Z34	X35	Y35	Z35	X36	Y36	Z36	X37	Y37	Z37	X38	Y38	Z38	X39	Y39	Z39	X40	Y40	Z40	X41	Y41	Z41	X42	Y42	Z42	X43	Y43	Z43	X44	Y44	Z44	X45	Y45	Z45	X46	Y46	Z46	X47	Y47	Z47	X48	Y48	Z48	
501	2.5050	486.350411	1289.853343	-58.722477	505.613576	1273.807499	-398.319821	457.182026	1380.184314	-225.610428	457.166903	1214.083170	-226.295287	477.474176	1020.677074	48.972934	679.992266	894.396506	-43.224939	481.921982	1022.482398	-541.213714	670.895370	892.971472	-434.012925	-70.753099	1179.052010	-252.688918	106.884640	1191.095490	-420.652711	78.844466	1181.594664	-86.748777	105.808468	1135.479997	-400.022528	109.261677	1140.118324	-120.260186	-43.852616	1218.688127	-200.429357	-39.888456	1221.393282	-305.176983	39.833162	1089.039921	-60.674172	41.544688	1047.703994	-443.914534	159.672180	1033.340903	-54.208638	239.873450	1014.799739	-61.638161	325.915122	988.604135	-73.505696	253.961365	1067.326898	-78.388770	414.030900	928.705525	-100.628894	353.670046	834.622114	-70.170376	312.000008	760.276797	-71.724474	260.683526	688.085356	-81.575912	352.158554	736.154166	-109.576204	188.339487	576.613152	-97.614888	225.857301	585.291249	-181.001871	135.574672	542.240608	-152.495025	403.500638	512.185613	-126.943028	296.019001	486.395362	-61.070529	93.735978	924.572322	-445.617537	153.917418	859.195909	-442.072493	194.551059	894.874253	-438.657190	204.236827	793.173650	-419.043630	244.781995	684.642484	-392.891486	186.231812	592.845834	-436.819746	160.660457	510.292158	-433.030563	132.661168	429.313406	-423.307382	212.307146	496.029605	-402.423238	93.009470	306.622634	-411.574204	121.132434	303.466953	-333.295440	40.697318	289.325803	-371.400453	284.586756	153.397015	-370.316780	182.450402	178.144721	-438.247661	-223.554040	893.898795	-248.441153	-12.133095	85.020157	-453.697035	-20.302202	80.954686	-53.572372	
502	2.5100	485.304364	1288.201272	-57.403534	506.541451	1272.351400	-396.343040	456.969307	1378.637261	-224.302828	456.781713	1212.474754	-225.082753	476.648412	1019.066332	50.058749	679.444381	894.293437	-43.005884	482.375261	1021.795317	-541.047369	671.259528	892.735123	-433.738477	-70.956658	1178.921210	-253.184586	106.100504	1190.631883	-421.225769	78.621538	1181.182090	-87.150948	105.177970	1134.867555	-400.614258	109.169966	1139.660154	-120.599501	-43.970326	1218.642846	-201.013501	-40.188260	1221.196843	-305.666993	39.621435	1088.572459	-61.091302	41.076693	1046.821313	-444.199049	159.181709	1031.542241	-55.034326	239.248240	1012.375265	-62.343877	325.104471	985.436110	-74.605613	253.856099	1064.745874	-79.092172	413.152477	923.929707	-101.858393	353.201681	828.515776	-70.955974	312.842347	753.503055	-72.560010	262.798878	680.394241	-82.250700	353.397332	730.176291	-110.551120	192.856724	568.623081	-97.925603	229.831802	577.981676	-181.759320	140.189356	533.159569	-152.304048	409.218077	510.853534	-126.701276	302.581269	481.831849	-60.882243	94.585039	924.029758	-445.102260	155.731744	859.508543	-441.142914	195.810582	895.715744	-437.486433	206.916478	794.204580	-417.875547	247.228451	685.723330	-391.755114	187.273505	594.795799	-435.781917	159.989455	512.684860	-432.084316	130.281365	432.342276	-422.428064	211.011732	497.460722	-400.782966	86.795615	311.073099	-410.519041	115.425207	307.182823	-332.378834	34.446785	293.866273	-369.872590	277.064670	156.206502	-370.739470	174.778598	181.927716	-437.905511	-223.482211	893.871597	-248.521380	-12.127085	84.941786	-453.708569	-20.285794	80.929859	-53.591826	
503	2.5150	484.331387	1286.505120	-56.206117	507.429952	1270.881759	-394.373222	456.861382	1376.958386	-223.098048	456.297704	1210.434348	-224.384044	475.810528	1017.494972	51.095729	678.894769	894.108372	-42.789701	482.651616	1020.930381	-540.916282	671.129751	892.316999	-433.877580	-71.218304	1178.604393	-253.728396	105.739481	1190.139588	-422.220724	78.465703	1180.591564	-87.560611	104.516428	1134.092613	-401.187041	109.156658	1139.288739	-121.326036	-44.099156	1218.433206	-201.649646	-40.485420	1220.870527	-306.205805	39.502063	1087.775484	-61.449389	40.735496	1045.690671	-444.507216	158.846291	1029.639808	-55.864781	238.688337	1009.844156	-62.975897	324.338595	982.094834	-75.654217	253.845551	1062.013166	-79.802515	412.185483	918.933153	-103.058301	352.774638	821.866556	-71.781781	313.726928	746.198980	-73.618632	265.106674	672.183978	-82.988314	354.567285	723.677514	-111.793502	197.485334	560.548904	-98.323820	234.015319	570.543369	-182.488254	144.968004	523.897980	-152.301004	414.919761	508.996097	-126.522291	308.930835	476.974429	-60.728910	95.464447	923.368960	-444.644764	157.565488	859.639846	-440.154520	196.989569	896.388720	-436.170094	209.647313	795.070704	-416.774214	249.820457	686.692517	-390.782519	188.549239	596.673769	-434.883097	159.429057	515.127203	-431.298836	127.836928	435.540601	-421.552573	209.561978	498.954713	-398.963184	80.693967	315.802827	-409.390429	109.152285	311.514614	-330.886291	28.126200	298.688789	-368.268112	269.652299	159.406728	-371.194969	167.056446	186.073151	-437.565989	-223.414427	893.843429	-248.642493	-12.106042	84.905016	-453.733146	-20.593184	80.963647	-53.716971	
504	2.5200	483.385331	1284.776993	-55.095807	508.271005	1269.397953	-392.500382	456.809138	1375.178108	-222.043141	455.859914	1208.494724	-223.161574	474.931164	1015.799072	52.131368	678.385546	893.851055	-42.619913	482.776580	1019.952731	-540.813684	670.763805	891.834996	-434.008234	-71.525513	1178.152510	-254.231629	104.456809	1189.295640	-422.558440	78.317544	1179.758043	-88.092973	103.896680	1133.155034	-401.754076	109.077628	1138.629984	-121.764961	-44.242899	1218.099404	-202.303792	-40.776112	1220.418291	-306.777168	39.363753	1086.818501	-61.810048	40.478347	1044.450185	-444.830442	158.467448	1027.698675	-56.692573	238.098105	1007.294882	-63.684932	323.790166	978.643567	-77.345458	253.805451	1059.256221	-80.543100	411.113756	913.651241	-104.227695	352.415389	814.811147	-72.573163	314.826101	738.486829	-74.635459	267.569670	663.575705	-83.857766	355.867943	716.859371	-113.176462	202.215605	552.443449	-98.762914	238.316751	563.043803	-183.239257	150.696580	514.349531	-153.025920	420.513148	506.421502	-126.431810	315.286323	471.869095	-60.779333	96.371731	922.621863	-444.273671	159.326151	859.627384	-439.331478	198.163625	896.869514	-434.864685	212.086156	795.657132	-415.777858	252.504859	687.640938	-389.982899	189.955754	598.437352	-434.040706	158.840509	517.571746	-430.449862	125.331193	438.909824	-420.549892	208.259938	500.504129	-397.346452	74.725955	320.811934	-408.214573	103.163661	316.120553	-329.434999	21.603054	303.774575	-366.568412	262.379579	163.200575	-371.752700	159.496955	190.610994	-437.137893	-223.381153	893.820174	-248.760325	-12.113192	84.833590	-453.747318	-20.309801	80.885352	-53.621360	
